# xmcd
#
# Track frame offsets:
#	150
#	17973
#	48652
#	65316
#	94235
#	125632
#	156144
#	179492
#	197889
#	215396
#	233264
#
# Disc length: 3587 seconds
#
# Revision: 1
# Processed by: cddbd v1.4PL0 Copyright (c) Steve Scherf et al.
# Submitted via: EasyCDDAExtractor 5.0.6
#
DISCID=980e010b
DTITLE=The Brother Music Powerhouse - Wow!
DYEAR=1998
DGENRE=Blues
TTITLE0=Dear Jill
TTITLE1=G-National Jam and Stones In My Pathway
TTITLE2=Dear Dad
TTITLE3=Let Me Love You
TTITLE4=Not Fade Away
TTITLE5=The Guild Jam and Walkin' Blues
TTITLE6=Life Is Hard
TTITLE7=That Dood It
TTITLE8=If I Had Possession
TTITLE9=Dust My Blues
TTITLE10=Hooker Blues
EXTD=
EXTT0=
EXTT1=
EXTT2=
EXTT3=
EXTT4=
EXTT5=
EXTT6=
EXTT7=
EXTT8=
EXTT9=
EXTT10=
PLAYORDER=
